HIERARCHY
ROOT joint_Root
{
	OFFSET 0.0 0.0 0.0
	CHANNELS 6 Xposition Yposition Zposition Zrotation Xrotation Yrotation 
	JOINT Hips
	{
		OFFSET -0.726466 93.3139 -2.00062
		CHANNELS 6 Xposition Yposition Zposition Zrotation Xrotation Yrotation 
		JOINT Spine
		{
			OFFSET 15.7357 0.0 0.0
			CHANNELS 6 Xposition Yposition Zposition Zrotation Xrotation Yrotation 
			JOINT Chest
			{
				OFFSET 8.98455 -0.406207 0.0
				CHANNELS 6 Xposition Yposition Zposition Zrotation Xrotation Yrotation 
				JOINT Neck
				{
					OFFSET 16.3773 0.0 0.0
					CHANNELS 6 Xposition Yposition Zposition Zrotation Xrotation Yrotation 
					JOINT Head
					{
						OFFSET 6.45672 0.0 0.0
						CHANNELS 6 Xposition Yposition Zposition Zrotation Xrotation Yrotation 
						End Site
						{
							OFFSET 0.0 0.0 0.0
						}
					}
				}
				JOINT Shoulder_L
				{
					OFFSET 12.9942 -0.242716 4.98039
					CHANNELS 6 Xposition Yposition Zposition Zrotation Xrotation Yrotation 
					JOINT UpperArm_L
					{
						OFFSET 5.34809 0.0 0.0
						CHANNELS 6 Xposition Yposition Zposition Zrotation Xrotation Yrotation 
						JOINT LowerArm_L
						{
							OFFSET 24.3286 1.87007e-05 0.0
							CHANNELS 6 Xposition Yposition Zposition Zrotation Xrotation Yrotation 
							JOINT Hand_L
							{
								OFFSET 22.2916 0.0 0.0
								CHANNELS 6 Xposition Yposition Zposition Zrotation Xrotation Yrotation 
								End Site
								{
									OFFSET 0.0 0.0 0.0
								}
							}
						}
					}
				}
				JOINT Shoulder_R
				{
					OFFSET 12.9945 -0.242716 -4.98039
					CHANNELS 6 Xposition Yposition Zposition Zrotation Xrotation Yrotation 
					JOINT UpperArm_R
					{
						OFFSET -5.34813 0.0 0.0
						CHANNELS 6 Xposition Yposition Zposition Zrotation Xrotation Yrotation 
						JOINT LowerArm_R
						{
							OFFSET -24.3289 0.000322201 0.0
							CHANNELS 6 Xposition Yposition Zposition Zrotation Xrotation Yrotation 
							JOINT Hand_R
							{
								OFFSET -22.2915 -0.000108084 0.0
								CHANNELS 6 Xposition Yposition Zposition Zrotation Xrotation Yrotation 
								End Site
								{
									OFFSET 0.0 0.0 0.0
								}
							}
						}
					}
				}
			}
		}
		JOINT UpperLeg_L
		{
			OFFSET -2.19248 -6.46944 0.0
			CHANNELS 6 Xposition Yposition Zposition Zrotation Xrotation Yrotation 
			JOINT LowerLeg_L
			{
				OFFSET 39.0811 0.0 -1.23785e-05
				CHANNELS 6 Xposition Yposition Zposition Zrotation Xrotation Yrotation 
				JOINT Foot_L
				{
					OFFSET 40.9854 0.0 -1.26872e-05
					CHANNELS 6 Xposition Yposition Zposition Zrotation Xrotation Yrotation 
					JOINT Toes_L
					{
						OFFSET 11.7543 0.0 0.0
						CHANNELS 6 Xposition Yposition Zposition Zrotation Xrotation Yrotation 
						End Site
						{
							OFFSET 0.0 0.0 0.0
						}
					}
				}
			}
		}
		JOINT UpperLeg_R
		{
			OFFSET -2.19251 6.46944 0.0
			CHANNELS 6 Xposition Yposition Zposition Zrotation Xrotation Yrotation 
			JOINT LowerLeg_R
			{
				OFFSET -39.0811 -0.00228153 -0.0401928
				CHANNELS 6 Xposition Yposition Zposition Zrotation Xrotation Yrotation 
				JOINT Foot_R
				{
					OFFSET -40.9854 0.0 0.0
					CHANNELS 6 Xposition Yposition Zposition Zrotation Xrotation Yrotation 
					JOINT Toes_R
					{
						OFFSET -11.7543 0.0 0.0
						CHANNELS 6 Xposition Yposition Zposition Zrotation Xrotation Yrotation 
						End Site
						{
							OFFSET 0.0 0.0 0.0
						}
					}
				}
			}
		}
	}
}
MOTION
Frames:	9
Frame Time:	0.0333333
0.000000 0.000000 0.000000 0.000000 0.000000 -0.000000 -0.523771 84.121000 -0.343884 89.079500 -2.804440 -5.131810 15.735700 0.000005 -0.000001 100.657000 81.116200 -99.928100 8.984550 -0.406207 -0.000000 9.686190 3.278320 1.179220 16.377300 -0.000001 -0.000001 4.696230 -0.245975 -0.851101 6.456720 -0.000001 -0.000000 -3.778810 -0.951265 2.694500 12.994200 -0.242716 4.980390 -87.125000 -6.511590 -66.114600 5.348090 -0.000007 -0.000001 -65.995500 36.112300 8.482150 24.328600 0.000019 0.000005 6.275400 3.850220 -58.606200 22.291600 -0.000001 0.000005 0.125948 5.673810 -18.028200 12.994500 -0.242716 -4.980390 89.984500 0.038950 -68.340700 -5.348130 -0.000001 -0.000004 -50.631100 16.824100 -30.570200 -24.328900 0.000322 -0.000009 -7.591240 -1.908100 -75.956900 -22.291500 -0.000108 -0.000004 3.795850 5.548810 -8.652280 -2.192480 -6.469440 -0.000000 178.284000 -9.772630 -39.650000 39.081100 -0.000007 -0.000012 -0.371595 -0.129573 109.225000 40.985400 -0.000006 -0.000013 12.232800 -9.134260 -49.441200 11.754300 -0.000000 0.000003 -0.007983 -0.087904 -20.156300 -2.192510 6.469440 -0.000001 -177.619000 13.506500 167.944000 -39.081100 -0.002282 -0.040193 0.110771 -0.088924 50.409000 -40.985400 0.000008 0.000006 10.466100 1.399500 -83.940500 -11.754300 -0.000006 -0.000006 -1.488140 -1.576230 -24.637600
0.000000 0.000000 0.000000 0.000000 0.000000 -0.000000 0.261866 87.266100 9.403360 91.268500 -4.896370 -6.098950 15.735700 0.000005 -0.000001 108.719000 81.283900 -109.338000 8.984550 -0.406207 -0.000000 8.805470 5.560650 -1.667400 16.377300 -0.000001 -0.000001 5.728720 -0.296760 -0.375929 6.456720 -0.000001 -0.000000 -3.386400 -3.150540 3.922230 12.994200 -0.242716 4.980390 -86.633500 -6.989840 -64.202900 5.348090 -0.000007 -0.000001 -67.131000 32.944100 12.868100 24.328600 0.000019 0.000005 4.052220 2.217940 -61.353200 22.291600 -0.000001 0.000005 0.322449 5.672000 -17.706500 12.994500 -0.242716 -4.980390 90.244300 -0.623901 -68.615500 -5.348130 -0.000001 -0.000004 -52.002600 15.362800 -31.849300 -24.328900 0.000322 -0.000009 -7.963920 -1.408390 -80.034900 -22.291500 -0.000108 -0.000004 3.720990 5.544430 -8.445710 -2.192480 -6.469440 -0.000000 173.812000 -9.090070 -43.616300 39.081100 -0.000007 -0.000012 -0.235940 -0.023946 95.797500 40.985400 -0.000006 -0.000013 10.432100 -11.519900 -54.537500 11.754300 -0.000000 0.000003 -0.005763 -0.068677 -19.371700 -2.192510 6.469440 -0.000001 177.078000 12.510900 176.676000 -39.081100 -0.002282 -0.040193 0.070825 -0.078183 40.826500 -40.985400 0.000008 0.000006 9.274940 5.845650 -71.423900 -11.754300 -0.000006 -0.000006 -0.105719 -0.458528 -35.739300
0.000000 0.000000 0.000000 0.000000 0.000000 -0.000000 0.885922 90.605800 18.811400 92.284900 -6.332430 -7.705110 15.735700 0.000005 -0.000001 115.090000 81.643700 -116.638000 8.984550 -0.406207 -0.000000 7.510550 7.063440 -3.559770 16.377300 -0.000001 -0.000001 6.932390 -0.120206 -0.395168 6.456720 -0.000001 -0.000000 -3.380950 -4.415350 5.052820 12.994200 -0.242716 4.980390 -85.854000 -8.093000 -62.756800 5.348090 -0.000007 -0.000001 -69.078700 28.860900 16.384200 24.328600 0.000019 0.000005 4.616290 2.327500 -63.298300 22.291600 -0.000001 0.000005 0.161504 5.666270 -16.835900 12.994500 -0.242716 -4.980390 90.594300 -1.533620 -68.811900 -5.348130 -0.000001 -0.000004 -53.580000 15.961700 -32.797800 -24.328900 0.000322 -0.000009 -6.568420 -0.977528 -81.569000 -22.291500 -0.000108 -0.000004 2.788800 5.535900 -8.057440 -2.192480 -6.469440 -0.000000 171.626000 -8.362880 -44.757700 39.081100 -0.000007 -0.000012 -0.088981 0.021398 76.482400 40.985400 -0.000006 -0.000013 8.869850 -12.844800 -58.706700 11.754300 -0.000000 0.000003 -0.005361 -0.064927 -19.218800 -2.192510 6.469440 -0.000001 172.980000 14.002800 -177.999000 -39.081100 -0.002282 -0.040193 0.061739 -0.091838 32.471400 -40.985400 0.000008 0.000006 6.740580 12.193500 -52.214300 -11.754300 -0.000006 -0.000006 -0.216637 -0.672049 -45.506200
0.000000 0.000000 0.000000 0.000000 0.000000 -0.000000 1.203050 93.025900 28.165200 90.919000 -6.786250 -7.563420 15.735700 0.000005 -0.000001 118.728000 81.460400 -120.288000 8.984550 -0.406207 -0.000000 7.381710 8.184360 -3.649360 16.377300 -0.000001 -0.000001 8.055260 0.029958 -0.747632 6.456720 -0.000001 -0.000000 -3.861870 -5.197140 6.078670 12.994200 -0.242716 4.980390 -85.033500 -9.448740 -62.105900 5.348090 -0.000007 -0.000001 -70.955900 24.796000 19.070700 24.328600 0.000019 0.000005 4.826530 2.244330 -65.119000 22.291600 -0.000001 0.000005 -0.388556 5.651750 -15.176300 12.994500 -0.242716 -4.980390 90.840200 -2.227140 -69.324300 -5.348130 -0.000001 -0.000004 -54.657100 17.536400 -33.329100 -24.328900 0.000322 -0.000009 -5.963270 -0.896759 -81.474600 -22.291500 -0.000108 -0.000004 2.517150 5.530810 -7.830560 -2.192480 -6.469440 -0.000000 173.169000 -8.250110 -40.405800 39.081100 -0.000007 -0.000012 0.007811 -0.005880 53.008300 40.985400 -0.000006 -0.000013 8.030140 -7.945410 -62.311300 11.754300 -0.000000 0.000003 -0.005181 -0.063214 -19.149000 -2.192510 6.469440 -0.000001 170.743000 15.224900 -172.777000 -39.081100 -0.002282 -0.040193 0.087303 -0.166247 26.804600 -40.985400 0.000008 0.000006 -2.694840 14.836900 -33.796900 -11.754300 -0.000006 -0.000006 -0.066671 -0.352868 -31.171400
0.000000 0.000000 0.000000 0.000000 0.000000 -0.000000 1.086910 93.454800 38.069400 87.972200 -7.644080 -6.494860 15.735700 0.000005 -0.000001 122.298000 80.906800 -123.159000 8.984550 -0.406207 -0.000000 7.763800 9.678490 -2.381590 16.377300 -0.000001 -0.000001 7.578220 0.083480 -1.141540 6.456720 -0.000001 -0.000000 -2.936600 -5.619150 6.251980 12.994200 -0.242716 4.980390 -84.536000 -10.264500 -61.772800 5.348090 -0.000007 -0.000001 -72.004300 21.852000 20.713500 24.328600 0.000019 0.000005 5.469380 2.356840 -66.756000 22.291600 -0.000001 0.000005 -1.615910 5.630310 -13.346800 12.994500 -0.242716 -4.980390 91.105300 -3.007060 -69.806500 -5.348130 -0.000001 -0.000004 -54.952000 19.713400 -33.347300 -24.328900 0.000322 -0.000009 -5.159580 -0.871689 -80.430900 -22.291500 -0.000108 -0.000004 2.777070 5.535870 -8.055900 -2.192480 -6.469440 -0.000000 177.160000 -8.899670 -33.350600 39.081100 -0.000007 -0.000012 0.013849 -0.024539 29.437600 40.985400 -0.000006 -0.000013 3.498820 -1.933760 -65.931800 11.754300 -0.000000 0.000003 -0.005403 -0.065319 -19.234700 -2.192510 6.469440 -0.000001 171.184000 13.337000 -168.826000 -39.081100 -0.002282 -0.040193 0.119041 -0.215139 28.278300 -40.985400 0.000008 0.000006 -6.057170 8.705910 -27.576500 -11.754300 -0.000006 -0.000006 -0.021786 -0.176989 -23.807700
0.000000 0.000000 0.000000 0.000000 0.000000 -0.000000 1.048010 92.537900 48.182000 85.247600 -9.772110 -6.774210 15.735700 0.000005 -0.000001 126.592000 80.717000 -126.802000 8.984550 -0.406207 -0.000000 7.263190 11.028600 -1.121820 16.377300 -0.000001 -0.000001 6.270850 0.745082 -1.382620 6.456720 -0.000001 -0.000000 -1.327120 -5.625250 5.814060 12.994200 -0.242716 4.980390 -84.436000 -10.069700 -60.874800 5.348090 -0.000007 -0.000001 -72.340100 20.133800 20.992800 24.328600 0.000019 0.000005 6.953700 2.890280 -67.538200 22.291600 -0.000001 0.000005 -2.388280 5.612180 -12.095800 12.994500 -0.242716 -4.980390 91.319700 -3.749480 -70.592700 -5.348130 -0.000001 -0.000004 -54.741500 22.508500 -33.121000 -24.328900 0.000322 -0.000009 -3.959780 -0.857406 -77.791500 -22.291500 -0.000108 -0.000004 2.593050 5.541800 -8.324530 -2.192480 -6.469440 -0.000000 -179.615000 -10.574200 -29.391600 39.081100 -0.000007 -0.000012 -0.003578 0.014809 13.582300 40.985400 -0.000006 -0.000013 -0.921253 -2.244900 -68.144300 11.754300 -0.000000 0.000003 -0.006095 -0.071701 -19.495000 -2.192510 6.469440 -0.000001 173.096000 8.478520 -168.159000 -39.081100 -0.002282 -0.040193 0.133748 -0.179218 36.052400 -40.985400 0.000008 0.000006 -2.295260 2.595910 -34.392600 -11.754300 -0.000006 -0.000006 -0.021866 -0.177412 -23.825200
0.000000 0.000000 0.000000 0.000000 0.000000 -0.000000 1.287070 90.830900 58.309100 84.398900 -10.421900 -6.420440 15.735700 0.000005 -0.000001 125.837000 80.807100 -125.987000 8.984550 -0.406207 -0.000000 7.249750 10.726600 -0.982280 16.377300 -0.000001 -0.000001 6.094570 1.158410 -1.211100 6.456720 -0.000001 -0.000000 -1.130790 -5.079130 5.824800 12.994200 -0.242716 4.980390 -84.970100 -9.143780 -61.020000 5.348090 -0.000007 -0.000001 -71.656800 18.498500 19.715800 24.328600 0.000019 0.000005 7.820110 3.326850 -67.093800 22.291600 -0.000001 0.000005 -2.576250 5.613760 -12.200800 12.994500 -0.242716 -4.980390 91.005100 -2.928730 -71.048800 -5.348130 -0.000001 -0.000004 -54.109100 25.812900 -32.087600 -24.328900 0.000322 -0.000009 -2.055890 -0.602435 -73.637500 -22.291500 -0.000108 -0.000004 2.308660 5.547420 -8.584970 -2.192480 -6.469440 -0.000000 179.732000 -12.354600 -30.555700 39.081100 -0.000007 -0.000012 0.036848 -0.139595 14.786800 40.985400 -0.000006 -0.000013 2.312460 -8.406270 -70.332300 11.754300 -0.000000 0.000003 -0.006056 -0.071350 -19.480700 -2.192510 6.469440 -0.000001 174.345000 4.212350 -168.617000 -39.081100 -0.002282 -0.040193 0.178012 -0.165150 46.618400 -40.985400 0.000008 0.000006 1.387250 -3.869650 -37.879800 -11.754300 -0.000006 -0.000006 -0.022603 -0.181303 -23.985700
0.000000 0.000000 0.000000 0.000000 0.000000 -0.000000 1.830670 88.452100 68.041500 87.268400 -8.921750 -5.751440 15.735700 0.000005 -0.000001 118.170000 81.201600 -119.281000 8.984550 -0.406207 -0.000000 7.889940 8.271840 -2.794960 16.377300 -0.000001 -0.000001 6.331970 1.180830 -1.083110 6.456720 -0.000001 -0.000000 -2.623750 -4.217060 5.935090 12.994200 -0.242716 4.980390 -86.257700 -7.134500 -62.228300 5.348090 -0.000007 -0.000001 -69.588900 18.481700 16.267000 24.328600 0.000019 0.000005 6.755610 2.957990 -66.460200 22.291600 -0.000001 0.000005 -2.224980 5.618980 -12.549600 12.994500 -0.242716 -4.980390 90.453200 -1.336870 -71.268400 -5.348130 -0.000001 -0.000004 -53.302300 28.506200 -29.558000 -24.328900 0.000322 -0.000009 0.710248 0.260912 -69.916600 -22.291500 -0.000108 -0.000004 1.222390 5.547790 -8.602330 -2.192480 -6.469440 -0.000000 175.638000 -11.767100 -38.172300 39.081100 -0.000007 -0.000012 0.356018 -0.575339 31.749800 40.985400 -0.000006 -0.000013 6.409140 -7.518400 -56.367500 11.754300 -0.000000 0.000003 -0.014567 -0.135082 -22.087500 -2.192510 6.469440 -0.000001 171.651000 4.036890 -172.137000 -39.081100 -0.002282 -0.040193 0.246323 -0.133387 61.250000 -40.985400 0.000008 0.000006 5.400790 -6.381920 -37.558000 -11.754300 -0.000006 -0.000006 -0.022119 -0.178756 -23.880600
0.000000 0.000000 0.000000 0.000000 0.000000 -0.000000 2.235090 85.298700 77.797700 89.827100 -6.226390 -4.581330 15.735700 0.000005 -0.000001 108.117000 81.257200 -110.007000 8.984550 -0.406207 -0.000000 8.974400 5.389300 -4.201750 16.377300 -0.000001 -0.000001 4.345890 0.360444 -0.034595 6.456720 -0.000001 -0.000000 -2.470500 -3.290740 5.740940 12.994200 -0.242716 4.980390 -87.830000 -4.366250 -63.545800 5.348090 -0.000007 -0.000001 -64.959900 21.462000 10.118200 24.328600 0.000019 0.000005 5.708900 2.415960 -67.136700 22.291600 -0.000001 0.000005 -2.037870 5.626300 -13.060400 12.994500 -0.242716 -4.980390 89.640700 0.993622 -70.141900 -5.348130 -0.000001 -0.000004 -51.799100 31.098100 -25.413300 -24.328900 0.000322 -0.000009 1.829620 0.782346 -66.882700 -22.291500 -0.000108 -0.000004 -0.418441 5.544410 -8.442660 -2.192480 -6.469440 -0.000000 174.195000 -7.488330 -40.349400 39.081100 -0.000007 -0.000012 -0.211035 0.179328 49.644300 40.985400 -0.000006 -0.000013 4.085790 -8.978190 -64.983000 11.754300 -0.000000 0.000003 -0.002734 -0.037566 -18.104500 -2.192510 6.469440 -0.000001 169.502000 5.128300 -177.476000 -39.081100 -0.002282 -0.040193 0.305158 -0.062796 78.262200 -40.985400 0.000008 0.000006 5.816400 -6.549880 -37.319700 -11.754300 -0.000006 -0.000006 -0.022901 -0.182856 -24.049800
